<mxfile host="app.diagrams.net" modified="2024-05-21T18:59:31.601Z" agent="Mozilla/5.0 (Windows NT 10.0; Win64; x64) AppleWebKit/537.36 (KHTML, like Gecko) Chrome/125.0.0.0 Safari/537.36" etag="m7wcsh46_2AnKmHcbi98" version="24.4.4" type="device">
  <diagram name="Page-1" id="wyetGaDxWWu-MuHVWUi1">
    <mxGraphModel dx="1434" dy="738" grid="0" gridSize="10" guides="1" tooltips="1" connect="1" arrows="1" fold="1" page="1" pageScale="1" pageWidth="850" pageHeight="1100" background="#000000" math="0" shadow="0">
      <root>
        <mxCell id="0" />
        <mxCell id="1" parent="0" />
        <mxCell id="M8w7Dnc4-hMv-GLeEeUF-1" value="&lt;font color=&quot;#ffffff&quot;&gt;User&lt;/font&gt;" style="shape=umlActor;verticalLabelPosition=bottom;verticalAlign=top;html=1;outlineConnect=0;strokeColor=#FFFFFF;fillColor=none;" vertex="1" parent="1">
          <mxGeometry x="78" y="276" width="36" height="66" as="geometry" />
        </mxCell>
        <mxCell id="M8w7Dnc4-hMv-GLeEeUF-2" value="Front End S&lt;span style=&quot;color: rgba(0, 0, 0, 0); font-family: monospace; font-size: 0px; text-align: start; text-wrap: nowrap;&quot;&gt;%3CmxGraphModel%3E%3Croot%3E%3CmxCell%20id%3D%220%22%2F%3E%3CmxCell%20id%3D%221%22%20parent%3D%220%22%2F%3E%3CmxCell%20id%3D%222%22%20value%3D%22Audio%20Recording%22%20style%3D%22rounded%3D0%3BwhiteSpace%3Dwrap%3Bhtml%3D1%3BfillColor%3Dnone%3BfontColor%3D%23FFFFFF%3BstrokeColor%3D%23FFFFFF%3B%22%20vertex%3D%221%22%20parent%3D%221%22%3E%3CmxGeometry%20x%3D%22158%22%20y%3D%22269%22%20width%3D%22120%22%20height%3D%2260%22%20as%3D%22geometry%22%2F%3E%3C%2FmxCell%3E%3C%2Froot%3E%3C%2FmxGraphModel%3E&lt;/span&gt;ervice" style="shape=hexagon;perimeter=hexagonPerimeter2;whiteSpace=wrap;html=1;fixedSize=1;fillColor=none;strokeColor=#FFFFFF;fontColor=#FFFFFF;" vertex="1" parent="1">
          <mxGeometry x="267" y="273" width="120" height="80" as="geometry" />
        </mxCell>
        <mxCell id="M8w7Dnc4-hMv-GLeEeUF-3" value="" style="edgeStyle=orthogonalEdgeStyle;rounded=0;orthogonalLoop=1;jettySize=auto;html=1;" edge="1" parent="1" source="M8w7Dnc4-hMv-GLeEeUF-4" target="M8w7Dnc4-hMv-GLeEeUF-2">
          <mxGeometry relative="1" as="geometry" />
        </mxCell>
        <mxCell id="M8w7Dnc4-hMv-GLeEeUF-4" value="Back End Service" style="shape=hexagon;perimeter=hexagonPerimeter2;whiteSpace=wrap;html=1;fixedSize=1;fillColor=none;strokeColor=#FFFFFF;fontColor=#FFFFFF;" vertex="1" parent="1">
          <mxGeometry x="527" y="273" width="120" height="80" as="geometry" />
        </mxCell>
        <mxCell id="M8w7Dnc4-hMv-GLeEeUF-5" value="Transcription Generation" style="rounded=0;whiteSpace=wrap;html=1;strokeColor=#FFFFFF;fillColor=none;fontColor=#FFFFFF;" vertex="1" parent="1">
          <mxGeometry x="527" y="177" width="120" height="45" as="geometry" />
        </mxCell>
        <mxCell id="M8w7Dnc4-hMv-GLeEeUF-6" value="Audio Feature Extraction" style="rounded=0;whiteSpace=wrap;html=1;strokeColor=#FFFFFF;fillColor=none;fontColor=#FFFFFF;" vertex="1" parent="1">
          <mxGeometry x="686" y="272.5" width="120" height="45" as="geometry" />
        </mxCell>
        <mxCell id="M8w7Dnc4-hMv-GLeEeUF-7" value="Hybrid CNN-LSTM&lt;br&gt;Model" style="rounded=0;whiteSpace=wrap;html=1;strokeColor=#FFFFFF;fillColor=none;fontColor=#FFFFFF;" vertex="1" parent="1">
          <mxGeometry x="845" y="272.5" width="120" height="45" as="geometry" />
        </mxCell>
        <mxCell id="M8w7Dnc4-hMv-GLeEeUF-8" value="Pretrained BERT model" style="rounded=0;whiteSpace=wrap;html=1;strokeColor=#FFFFFF;fillColor=none;fontColor=#FFFFFF;" vertex="1" parent="1">
          <mxGeometry x="845" y="177" width="120" height="45" as="geometry" />
        </mxCell>
        <mxCell id="M8w7Dnc4-hMv-GLeEeUF-9" value="Decision Level Fusion - Weighted Average" style="rounded=0;whiteSpace=wrap;html=1;strokeColor=#FFFFFF;fillColor=none;fontColor=#FFFFFF;" vertex="1" parent="1">
          <mxGeometry x="1049" y="222" width="120" height="45" as="geometry" />
        </mxCell>
        <mxCell id="M8w7Dnc4-hMv-GLeEeUF-10" style="edgeStyle=orthogonalEdgeStyle;rounded=0;orthogonalLoop=1;jettySize=auto;html=1;strokeWidth=4;strokeColor=#FFFFFF;entryX=0;entryY=0.25;entryDx=0;entryDy=0;exitX=1;exitY=0.25;exitDx=0;exitDy=0;" edge="1" parent="1" source="M8w7Dnc4-hMv-GLeEeUF-2" target="M8w7Dnc4-hMv-GLeEeUF-4">
          <mxGeometry relative="1" as="geometry">
            <mxPoint x="373" y="444" as="sourcePoint" />
            <mxPoint x="487" y="313" as="targetPoint" />
          </mxGeometry>
        </mxCell>
        <mxCell id="M8w7Dnc4-hMv-GLeEeUF-11" style="edgeStyle=orthogonalEdgeStyle;rounded=0;orthogonalLoop=1;jettySize=auto;html=1;entryX=0.5;entryY=1;entryDx=0;entryDy=0;strokeWidth=4;strokeColor=#FFFFFF;exitX=0.5;exitY=0;exitDx=0;exitDy=0;" edge="1" parent="1" source="M8w7Dnc4-hMv-GLeEeUF-4" target="M8w7Dnc4-hMv-GLeEeUF-5">
          <mxGeometry relative="1" as="geometry">
            <mxPoint x="255" y="343" as="sourcePoint" />
            <mxPoint x="346" y="343" as="targetPoint" />
          </mxGeometry>
        </mxCell>
        <mxCell id="M8w7Dnc4-hMv-GLeEeUF-12" style="edgeStyle=orthogonalEdgeStyle;rounded=0;orthogonalLoop=1;jettySize=auto;html=1;strokeWidth=4;strokeColor=#FFFFFF;exitX=1;exitY=0.5;exitDx=0;exitDy=0;" edge="1" parent="1" source="M8w7Dnc4-hMv-GLeEeUF-6" target="M8w7Dnc4-hMv-GLeEeUF-7">
          <mxGeometry relative="1" as="geometry">
            <mxPoint x="265" y="353" as="sourcePoint" />
            <mxPoint x="356" y="353" as="targetPoint" />
          </mxGeometry>
        </mxCell>
        <mxCell id="M8w7Dnc4-hMv-GLeEeUF-13" style="edgeStyle=orthogonalEdgeStyle;rounded=0;orthogonalLoop=1;jettySize=auto;html=1;entryX=0;entryY=0.75;entryDx=0;entryDy=0;strokeWidth=4;strokeColor=#FFFFFF;" edge="1" parent="1" source="M8w7Dnc4-hMv-GLeEeUF-7" target="M8w7Dnc4-hMv-GLeEeUF-9">
          <mxGeometry relative="1" as="geometry">
            <mxPoint x="285" y="355" as="sourcePoint" />
            <mxPoint x="376" y="355" as="targetPoint" />
          </mxGeometry>
        </mxCell>
        <mxCell id="M8w7Dnc4-hMv-GLeEeUF-14" style="edgeStyle=orthogonalEdgeStyle;rounded=0;orthogonalLoop=1;jettySize=auto;html=1;entryX=0;entryY=0.25;entryDx=0;entryDy=0;strokeWidth=4;strokeColor=#FFFFFF;exitX=1;exitY=0.5;exitDx=0;exitDy=0;" edge="1" parent="1" source="M8w7Dnc4-hMv-GLeEeUF-8" target="M8w7Dnc4-hMv-GLeEeUF-9">
          <mxGeometry relative="1" as="geometry">
            <mxPoint x="295" y="365" as="sourcePoint" />
            <mxPoint x="386" y="365" as="targetPoint" />
          </mxGeometry>
        </mxCell>
        <mxCell id="M8w7Dnc4-hMv-GLeEeUF-15" style="edgeStyle=orthogonalEdgeStyle;rounded=0;orthogonalLoop=1;jettySize=auto;html=1;strokeWidth=4;strokeColor=#FFFFFF;exitX=1;exitY=0.25;exitDx=0;exitDy=0;" edge="1" parent="1" source="M8w7Dnc4-hMv-GLeEeUF-4" target="M8w7Dnc4-hMv-GLeEeUF-6">
          <mxGeometry relative="1" as="geometry">
            <mxPoint x="437" y="306" as="sourcePoint" />
            <mxPoint x="546" y="306" as="targetPoint" />
          </mxGeometry>
        </mxCell>
        <mxCell id="M8w7Dnc4-hMv-GLeEeUF-16" style="edgeStyle=orthogonalEdgeStyle;rounded=0;orthogonalLoop=1;jettySize=auto;html=1;strokeWidth=4;strokeColor=#FFFFFF;entryX=1;entryY=0.75;entryDx=0;entryDy=0;exitX=0;exitY=0.75;exitDx=0;exitDy=0;" edge="1" parent="1" source="M8w7Dnc4-hMv-GLeEeUF-4" target="M8w7Dnc4-hMv-GLeEeUF-2">
          <mxGeometry relative="1" as="geometry">
            <mxPoint x="398" y="316" as="sourcePoint" />
            <mxPoint x="507" y="316" as="targetPoint" />
          </mxGeometry>
        </mxCell>
        <mxCell id="M8w7Dnc4-hMv-GLeEeUF-17" style="edgeStyle=orthogonalEdgeStyle;rounded=0;orthogonalLoop=1;jettySize=auto;html=1;strokeWidth=4;strokeColor=#FFFFFF;entryX=0.5;entryY=1;entryDx=0;entryDy=0;exitX=1;exitY=0.5;exitDx=0;exitDy=0;" edge="1" parent="1" source="M8w7Dnc4-hMv-GLeEeUF-9" target="M8w7Dnc4-hMv-GLeEeUF-4">
          <mxGeometry relative="1" as="geometry">
            <mxPoint x="467" y="336" as="sourcePoint" />
            <mxPoint x="576" y="336" as="targetPoint" />
            <Array as="points">
              <mxPoint x="1204" y="245" />
              <mxPoint x="1204" y="390" />
              <mxPoint x="587" y="390" />
            </Array>
          </mxGeometry>
        </mxCell>
        <mxCell id="M8w7Dnc4-hMv-GLeEeUF-18" value="User uploads and submits audio file" style="text;html=1;align=center;verticalAlign=middle;whiteSpace=wrap;rounded=0;fontColor=#FFFFFF;" vertex="1" parent="1">
          <mxGeometry x="121" y="243" width="157" height="54" as="geometry" />
        </mxCell>
        <mxCell id="M8w7Dnc4-hMv-GLeEeUF-19" value="Display model predictions and probabilities to user" style="text;html=1;align=center;verticalAlign=middle;whiteSpace=wrap;rounded=0;fontColor=#FFFFFF;" vertex="1" parent="1">
          <mxGeometry x="117" y="331" width="157" height="54" as="geometry" />
        </mxCell>
        <mxCell id="M8w7Dnc4-hMv-GLeEeUF-20" value="HTTP Post including audio file" style="text;html=1;align=center;verticalAlign=middle;whiteSpace=wrap;rounded=0;fontColor=#FFFFFF;" vertex="1" parent="1">
          <mxGeometry x="378" y="249" width="141" height="54" as="geometry" />
        </mxCell>
        <mxCell id="M8w7Dnc4-hMv-GLeEeUF-21" value="HTTP Response with model predictions and probabilities" style="text;html=1;align=center;verticalAlign=middle;whiteSpace=wrap;rounded=0;fontColor=#FFFFFF;" vertex="1" parent="1">
          <mxGeometry x="391" y="331" width="141" height="54" as="geometry" />
        </mxCell>
        <mxCell id="M8w7Dnc4-hMv-GLeEeUF-22" style="edgeStyle=orthogonalEdgeStyle;rounded=0;orthogonalLoop=1;jettySize=auto;html=1;strokeWidth=4;strokeColor=#FFFFFF;exitX=1;exitY=0.5;exitDx=0;exitDy=0;" edge="1" parent="1" source="M8w7Dnc4-hMv-GLeEeUF-5" target="M8w7Dnc4-hMv-GLeEeUF-8">
          <mxGeometry relative="1" as="geometry">
            <mxPoint x="648" y="306" as="sourcePoint" />
            <mxPoint x="696" y="305" as="targetPoint" />
          </mxGeometry>
        </mxCell>
        <mxCell id="M8w7Dnc4-hMv-GLeEeUF-23" value="" style="edgeStyle=orthogonalEdgeStyle;rounded=0;orthogonalLoop=1;jettySize=auto;html=1;" edge="1" parent="1" source="M8w7Dnc4-hMv-GLeEeUF-24" target="M8w7Dnc4-hMv-GLeEeUF-7">
          <mxGeometry relative="1" as="geometry" />
        </mxCell>
        <mxCell id="M8w7Dnc4-hMv-GLeEeUF-24" value="Return model predictions and probabilities" style="text;html=1;align=center;verticalAlign=middle;whiteSpace=wrap;rounded=0;fontColor=#FFFFFF;" vertex="1" parent="1">
          <mxGeometry x="931" y="343" width="264" height="54" as="geometry" />
        </mxCell>
        <mxCell id="M8w7Dnc4-hMv-GLeEeUF-25" style="edgeStyle=orthogonalEdgeStyle;rounded=0;orthogonalLoop=1;jettySize=auto;html=1;strokeWidth=4;strokeColor=#FFFFFF;entryX=0.071;entryY=0.216;entryDx=0;entryDy=0;entryPerimeter=0;" edge="1" parent="1" target="M8w7Dnc4-hMv-GLeEeUF-2">
          <mxGeometry relative="1" as="geometry">
            <mxPoint x="117" y="289" as="sourcePoint" />
            <mxPoint x="286" y="340" as="targetPoint" />
          </mxGeometry>
        </mxCell>
        <mxCell id="M8w7Dnc4-hMv-GLeEeUF-26" style="edgeStyle=orthogonalEdgeStyle;rounded=0;orthogonalLoop=1;jettySize=auto;html=1;strokeWidth=4;strokeColor=#FFFFFF;exitX=0;exitY=0.75;exitDx=0;exitDy=0;" edge="1" parent="1" source="M8w7Dnc4-hMv-GLeEeUF-2" target="M8w7Dnc4-hMv-GLeEeUF-1">
          <mxGeometry relative="1" as="geometry">
            <mxPoint x="127" y="299" as="sourcePoint" />
            <mxPoint x="286" y="300" as="targetPoint" />
            <Array as="points">
              <mxPoint x="150" y="330" />
              <mxPoint x="150" y="330" />
            </Array>
          </mxGeometry>
        </mxCell>
      </root>
    </mxGraphModel>
  </diagram>
</mxfile>
